<svg width="311" height="346" viewBox="0 0 311 346" fill="none" xmlns="http://www.w3.org/2000/svg">
<path d="M266.104 219.534C266.104 289.256 217.09 345.776 156.628 345.776C96.166 345.776 47.152 289.256 47.152 219.534C47.152 149.812 45.554 93.0462 106.016 93.0462C141.376 93.0462 219.05 90.0463 253.438 120.114C277.85 141.459 266.104 190.587 266.104 219.534Z" fill="#DE9C79"/>
<path d="M11.459 148.838C13.8956 153.441 20.5965 148.951 23.6423 146.131L38.8147 112.742L79.1067 62.7018L175.287 24.3595L282.516 146.131H298.033C298.033 93.5902 254.531 0.958435 160.198 0.958435C33.1911 0.958435 8.41327 143.085 11.459 148.838Z" fill="#9B9BA0"/>
<path d="M8.77225 150.421L12.3643 143.2C12.513 145.431 12.1352 147.207 13.4085 149.761C14.8337 152.62 23.7899 143.551 27.6064 138.76L18.5969 225.809L7.2547 217.759C1.60258 205.009 5.91135 167.554 8.77225 150.421Z" fill="#AEAEB1"/>
<path d="M24.9858 138.716C24.8435 134.102 30.2886 134.647 33.0289 135.497L40.879 151.076L35.904 178.656C35.2133 199.277 32.2125 240.378 25.7345 239.819C19.2565 239.26 18.1213 233.995 18.3635 231.433C12.524 176.003 20.3452 146.526 24.9858 138.716Z" fill="#A6A6A6"/>
<path d="M52.1262 143.4L32.9986 135.953C24.9361 152.981 24.9876 212.07 26.0212 239.485L45.5436 240.96L52.1262 143.4Z" fill="#20393E"/>
<path d="M302.132 144.363L298.382 137.223C298.282 139.457 298.699 141.224 297.483 143.805C296.121 146.695 286.967 137.825 283.046 133.12L293.973 219.949L305.135 211.651C310.504 198.779 305.37 161.429 302.132 144.363Z" fill="#AEAEB1"/>
<path d="M285.665 133.019C285.705 128.402 280.273 129.068 277.553 129.977L270.048 145.726L275.63 173.19C276.775 193.79 280.682 234.815 287.146 234.113C293.61 233.411 294.629 228.123 294.33 225.567C298.946 170.021 290.476 140.724 285.665 133.019Z" fill="#A6A6A6"/>
<path d="M258.634 138.3L277.593 130.433C286.029 147.279 287.281 206.354 286.852 233.786L267.367 235.691L258.634 138.3Z" fill="#20393E"/>
<path d="M115.454 339.85C17.9726 291.871 30.4116 227.201 48.8163 200.863C48.8163 243.511 79.9139 248.462 95.4626 245.606C150.296 213.62 193.832 232.278 208.746 245.606C254.441 252.46 263.96 218.633 263.008 200.863C285.855 236.657 272.528 267.184 263.008 277.973C208.746 354.694 151.311 350.956 115.454 339.85Z" fill="#5C4245"/>
<rect x="88.0806" y="173.597" width="18.3582" height="24.3187" rx="9.17908" fill="black"/>
<rect x="213.727" y="173.597" width="18.3582" height="24.3187" rx="9.17908" fill="black"/>
<path d="M106.916 162.868C97.9513 153.522 83.9482 158.974 78.0671 162.868C78.0671 157.959 80.6985 154.72 83.8879 152.683C88.948 149.451 95.7813 149.633 100.757 152.993C105.408 156.133 106.861 160.457 106.916 162.868Z" fill="black"/>
<path d="M205.979 162.868C214.943 153.522 228.946 158.974 234.827 162.868C234.827 157.959 232.196 154.72 229.006 152.683C223.946 149.451 217.113 149.633 212.137 152.993C207.487 156.133 206.033 160.457 205.979 162.868Z" fill="black"/>
<path d="M161.003 13.9252C122.588 13.9252 83.9853 46.6907 69.4856 63.0735L240.657 59.119C230.112 44.0544 199.418 13.9252 161.003 13.9252Z" fill="#E41313"/>
<path d="M248.566 137.078C167.217 82.3938 93.0242 114.293 66.0962 137.078C16.5497 159.218 22.1017 121.446 31.071 99.7934C51.8601 66.35 96.602 45.1843 116.374 38.7818C138.971 25.2237 177.009 33.1326 193.204 38.7818C270.937 54.5996 288.864 107.137 288.111 131.429C277.716 153.574 257.417 144.422 248.566 137.078Z" fill="#FF0000"/>
<path fill-rule="evenodd" clip-rule="evenodd" d="M41.9622 142.205C56.2803 137.931 97.0335 132.525 145.502 145.09C150.844 146.052 163.773 147.398 172.749 145.09C190.7 139 235.834 129.896 272.762 142.205C274.258 142.953 276.801 145.86 275.006 151.502C274.738 152.52 274.221 155.234 274.303 157.942C273.619 169.67 271.328 194.807 267.307 198.746C264.537 205.072 255.025 211.692 221.784 211.692C214.612 211.692 190.575 210.572 184.253 199.601L168.68 166.131C167.284 162.923 162.591 157.478 158.886 157.478C158.819 157.478 158.709 157.466 158.562 157.449C156.741 157.242 149.162 156.38 145.502 170.314C143.465 178.215 137.348 195.785 129.166 202.855C124.362 206.422 110.246 213.183 92.2093 211.692C83.9967 211.381 65.805 209.967 58.739 206.806C54.6327 204.714 50.3137 201.225 47.3498 191.931C45.103 184.885 41.1671 168.223 43.3985 157.942C42.9197 156.178 41.9622 152.324 41.9622 151.022C41.9622 150.578 41.8551 149.997 41.7285 149.311C41.3919 147.487 40.9183 144.92 41.9622 142.205ZM50.8682 153.761C51.7796 151.881 53.0758 150.213 54.6724 148.866L54.7467 148.803C57.16 146.767 60.1419 145.523 63.2869 145.241L86.1041 143.191C89.2489 142.909 92.4137 142.931 95.5543 143.257L125.492 146.37C128.433 146.676 131.227 147.814 133.545 149.65C137.731 152.968 139.923 158.202 139.349 163.513L139.017 166.578C138.82 168.403 138.386 170.195 137.725 171.909L133.151 183.778C132.086 186.54 130.659 189.149 128.907 191.535L126.645 194.615C123.909 198.34 120.057 201.095 115.649 202.481L111.592 203.454C107.847 204.353 104.009 204.807 100.157 204.807H85.0325C82.5692 204.807 80.1095 204.622 77.6739 204.252L68.3065 202.829C66.7852 202.598 65.2979 202.182 63.8775 201.59C59.2852 199.676 55.6331 196.029 53.7139 191.439L53.2806 190.403C52.5965 188.767 52.1163 187.053 51.8507 185.3L50.3121 175.144L49.4053 161.24C49.2371 158.663 49.7413 156.085 50.8682 153.761ZM266.444 153.761C265.533 151.881 264.237 150.213 262.64 148.866L262.566 148.803C260.152 146.767 257.17 145.523 254.025 145.241L231.208 143.191C228.063 142.909 224.899 142.931 221.758 143.257L191.821 146.37C188.879 146.676 186.086 147.814 183.768 149.65C179.581 152.968 177.389 158.202 177.964 163.513L178.295 166.578C178.492 168.403 178.927 170.195 179.587 171.909L184.161 183.778C185.226 186.54 186.653 189.149 188.406 191.535L190.668 194.615C193.403 198.34 197.255 201.095 201.663 202.481L205.72 203.454C209.465 204.353 213.303 204.807 217.155 204.807H232.28C234.743 204.807 237.203 204.622 239.638 204.252L249.006 202.829C250.527 202.598 252.014 202.182 253.435 201.59C258.027 199.676 261.679 196.029 263.598 191.439L264.032 190.403C264.716 188.767 265.196 187.053 265.462 185.3L267 175.144L267.907 161.24C268.075 158.663 267.571 156.085 266.444 153.761Z" fill="#E5DAD5"/>
<path d="M186.553 252.224C173.147 269.461 141.067 262.279 126.703 256.533H124.309C154.186 279.133 179.85 265.95 188.948 256.533L186.553 252.224Z" fill="black"/>
</svg>
