<svg width="631" height="625" viewBox="0 0 631 625" fill="none" xmlns="http://www.w3.org/2000/svg">
<path fill-rule="evenodd" clip-rule="evenodd" d="M315.505 43.8662C271.354 43.8662 227.22 58.9365 191.345 89.0854C119.586 149.379 101.382 252.762 148.216 333.995L289.357 536.521C294.737 545.855 304.741 551.631 315.505 551.631C326.27 551.631 336.273 545.855 341.653 536.521L482.794 333.995C529.634 252.761 511.428 149.375 439.67 89.0854C403.793 58.9365 359.658 43.8662 315.509 43.8662L315.505 43.8662ZM315.505 67.9758C354.107 67.9758 392.703 81.1922 424.155 107.621C487.004 160.43 502.902 250.531 461.976 321.722L320.742 524.435C319.655 526.321 317.682 527.459 315.508 527.459C313.333 527.459 311.361 526.321 310.273 524.435L169.039 321.722C128.113 250.541 144.01 160.439 206.861 107.621C238.312 81.1922 276.908 67.9758 315.51 67.9758H315.505ZM291.362 188.938C284.673 188.938 279.289 194.33 279.289 201.029V297.745C279.289 304.444 284.673 309.836 291.362 309.836C298.048 309.836 303.432 304.445 303.432 297.745V201.029C303.432 194.33 298.048 188.938 291.362 188.938V188.938ZM387.938 213.116C381.249 213.116 375.865 218.508 375.865 225.207V297.745C375.865 304.444 381.249 309.836 387.938 309.836C394.628 309.836 400.012 304.445 400.012 297.745V225.207C400.012 218.508 394.628 213.116 387.938 213.116V213.116ZM339.648 237.298C332.963 237.298 327.579 242.69 327.579 249.385V297.745C327.579 304.444 332.963 309.836 339.648 309.836C346.338 309.836 351.722 304.445 351.722 297.745V249.385C351.722 242.69 346.338 237.298 339.648 237.298ZM243.072 261.476C236.383 261.476 230.999 266.868 230.999 273.567V297.745C230.999 304.444 236.383 309.836 243.072 309.836C249.762 309.836 255.146 304.445 255.146 297.745V273.567C255.146 266.868 249.762 261.476 243.072 261.476ZM212.89 485.132C211.156 485.136 209.447 485.516 207.87 486.245C186.072 496.441 169.236 511.317 162.103 527.756C154.843 544.49 158.962 564.151 172.478 579.112C199.515 609.038 254.591 624.166 315.502 624.166C376.413 624.166 431.468 609.038 458.506 579.112C472.026 564.151 476.165 544.491 468.906 527.756C461.821 511.427 444.808 496.458 423.231 486.289C421.659 485.565 419.852 485.14 418.118 485.132C411.449 485.132 406.044 490.548 406.044 497.223C406.052 501.955 408.817 506.245 413.118 508.201C432.2 516.952 443.033 528.845 446.739 537.39C450.45 545.931 449.552 552.995 440.611 562.891C422.73 582.682 371.974 599.986 315.499 599.986C259.024 599.986 208.277 582.682 190.386 562.891C181.446 552.994 180.528 545.931 184.234 537.39C187.941 528.845 198.823 516.977 217.904 508.225C222.193 506.262 224.95 501.946 224.954 497.223C224.954 490.548 219.55 485.132 212.88 485.132H212.89Z" fill="#E76C3D"/>
</svg>
