<svg width="631" height="625" viewBox="0 0 631 625" fill="none" xmlns="http://www.w3.org/2000/svg">
<path d="M175.006 0H35.0063C25.7251 0 16.8183 3.68747 10.257 10.2552C3.69443 16.8177 0.00696584 25.7192 0.00696584 35.0005V125.303C-0.180527 134.704 3.42363 143.787 10.007 150.506C16.5903 157.219 25.6003 161.006 35.007 161.001H93.3403V179.902H70.007C63.5643 179.902 58.3403 185.126 58.3403 191.569C58.3403 194.662 59.5695 197.631 61.757 199.819C63.9445 202.006 66.9132 203.235 70.007 203.235H137.674C140.767 203.235 143.736 202.006 145.924 199.819C148.111 197.631 149.34 194.662 149.34 191.569C149.34 188.475 148.111 185.506 145.924 183.319C143.736 181.131 140.767 179.902 137.674 179.902H116.674V161.001H175.007C184.413 161.006 193.423 157.219 200.007 150.506C206.59 143.787 210.194 134.703 210.007 125.303V35.0005C210.007 25.7193 206.319 16.8179 199.757 10.2552C193.194 3.68747 184.288 0 175.008 0H175.006ZM186.673 125.303C186.673 128.396 185.444 131.365 183.256 133.553C181.069 135.74 178.1 136.969 175.006 136.969H35.0063C28.5636 136.969 23.3396 131.745 23.3396 125.303V35C23.3396 28.5573 28.5636 23.3333 35.0063 23.3333H175.006C178.1 23.3333 181.069 24.5625 183.256 26.75C185.444 28.9427 186.673 31.9063 186.673 35V125.303ZM595.006 0H455.006C445.725 0 436.818 3.68747 430.257 10.2552C423.694 16.8177 420.007 25.7192 420.007 35.0005V125.303C419.819 134.704 423.424 143.787 430.007 150.506C436.59 157.219 445.6 161.006 455.007 161.001H513.34V179.902H491.174C484.731 179.902 479.507 185.126 479.507 191.569C479.507 194.662 480.736 197.631 482.924 199.819C485.111 202.006 488.08 203.235 491.174 203.235H558.84C561.934 203.235 564.903 202.006 567.09 199.819C569.278 197.631 570.507 194.662 570.507 191.569C570.507 188.475 569.278 185.506 567.09 183.319C564.903 181.131 561.934 179.902 558.84 179.902H536.674V161.001H595.007C604.413 161.006 613.423 157.219 620.007 150.506C626.59 143.787 630.194 134.703 630.007 125.303V35.0005C630.007 25.7193 626.32 16.8179 619.757 10.2552C613.194 3.68747 604.288 0 595.008 0H595.006ZM606.673 125.303C606.673 128.396 605.444 131.365 603.256 133.553C601.069 135.74 598.1 136.969 595.006 136.969H455.006C448.564 136.969 443.34 131.745 443.34 125.303V35C443.34 28.5573 448.564 23.3333 455.006 23.3333H595.006C598.1 23.3333 601.069 24.5625 603.256 26.75C605.444 28.9427 606.673 31.9063 606.673 35V125.303ZM175.006 420.703H35.0063C25.7251 420.703 16.8183 424.39 10.257 430.953C3.69563 437.515 0.00696584 446.422 0.00696584 455.702V546.702C0.00696584 555.983 3.69443 564.885 10.257 571.451C16.8195 578.014 25.7263 581.701 35.0063 581.701H93.3396V600.837H70.0063V600.832C63.5636 600.832 58.3396 606.056 58.3396 612.499C58.3396 615.593 59.5688 618.561 61.7563 620.749C63.9438 622.936 66.9126 624.165 70.0063 624.165H137.673C140.767 624.165 143.736 622.936 145.923 620.749C148.11 618.561 149.34 615.593 149.34 612.499C149.34 609.405 148.11 606.441 145.923 604.249C143.736 602.061 140.767 600.832 137.673 600.832H116.673V581.696L175.006 581.701C184.287 581.701 193.194 578.014 199.756 571.451C206.318 564.884 210.006 555.982 210.006 546.702V455.702C210.006 446.421 206.318 437.514 199.756 430.953C193.193 424.391 184.286 420.703 175.006 420.703ZM186.673 546.703C186.673 549.796 185.444 552.765 183.256 554.953C181.069 557.14 178.1 558.369 175.006 558.369H35.0063C28.5636 558.369 23.3396 553.145 23.3396 546.703V455.703C23.3396 449.26 28.5636 444.036 35.0063 444.036H175.006C178.1 444.036 181.069 445.265 183.256 447.453C185.444 449.64 186.673 452.609 186.673 455.703V546.703ZM595.006 420.703H455.006C445.725 420.703 436.818 424.39 430.257 430.953C423.696 437.515 420.007 446.422 420.007 455.702V546.702C420.007 555.983 423.694 564.885 430.257 571.451C436.82 578.014 445.726 581.701 455.006 581.701H513.34V600.837H491.173V600.832C484.73 600.832 479.506 606.056 479.506 612.499C479.506 615.593 480.735 618.561 482.923 620.749C485.11 622.936 488.079 624.165 491.173 624.165H558.84C561.933 624.165 564.902 622.936 567.09 620.749C569.277 618.561 570.506 615.593 570.506 612.499C570.506 609.405 569.277 606.441 567.09 604.249C564.902 602.061 561.933 600.832 558.84 600.832H536.673V581.696L595.006 581.701C604.288 581.701 613.194 578.014 619.756 571.451C626.318 564.884 630.006 555.982 630.006 546.702V455.702C630.006 446.421 626.318 437.514 619.756 430.953C613.193 424.391 604.286 420.703 595.006 420.703ZM606.673 546.703C606.673 549.796 605.444 552.765 603.256 554.953C601.069 557.14 598.1 558.369 595.006 558.369H455.006C448.564 558.369 443.34 553.145 443.34 546.703V455.703C443.34 449.26 448.564 444.036 455.006 444.036H595.006C598.1 444.036 601.069 445.265 603.256 447.453C605.444 449.64 606.673 452.609 606.673 455.703V546.703ZM408.34 236.369L331.574 311.968L408.34 387.567C410.86 389.827 412.303 393.051 412.303 396.436C412.303 399.817 410.861 403.046 408.34 405.301C403.678 409.655 396.433 409.655 391.772 405.301L315.006 328.536L239.408 405.301C234.746 409.655 227.501 409.655 222.84 405.301C218.366 400.686 218.366 393.348 222.84 388.733L298.438 311.968L222.84 236.369C218.267 231.791 218.267 224.374 222.84 219.801C227.413 215.228 234.829 215.228 239.408 219.801L315.006 295.4L390.605 219.801C395.183 215.228 402.6 215.228 407.173 219.801C411.746 224.374 411.746 231.791 407.173 236.369L408.34 236.369ZM105.006 381.969C98.5636 381.969 93.3396 376.745 93.3396 370.303V252.939C93.3396 246.491 98.5636 241.272 105.006 241.272C111.449 241.272 116.673 246.491 116.673 252.939V371.007V371.001C116.303 377.173 111.183 381.981 105.006 381.97V381.969ZM245.006 101.969C245.006 95.5267 250.23 90.3027 256.673 90.3027H374.741C381.184 90.3027 386.408 95.5267 386.408 101.969C386.408 108.412 381.184 113.636 374.741 113.636H255.976C249.804 113.266 244.996 108.146 245.007 101.969H245.006ZM525.006 381.969C518.564 381.969 513.34 376.745 513.34 370.303V252.939C513.34 246.491 518.564 241.272 525.006 241.272C531.449 241.272 536.673 246.491 536.673 252.939V371.007V371.001C536.303 377.173 531.183 381.981 525.006 381.97V381.969ZM385.006 521.969C385.006 525.063 383.777 528.032 381.59 530.219C379.402 532.407 376.433 533.636 373.34 533.636H255.976C249.528 533.636 244.309 528.412 244.309 521.969C244.309 515.527 249.528 510.303 255.976 510.303H374.044H374.038C380.21 510.672 385.018 515.792 385.007 521.969H385.006Z" fill="#E76C3D"/>
</svg>
