<svg width="725" height="679" viewBox="0 0 725 679" fill="none" xmlns="http://www.w3.org/2000/svg">
<path fill-rule="evenodd" clip-rule="evenodd" d="M361.998 0C310.337 0 258.696 17.6335 216.719 52.9103C132.756 123.459 111.455 244.426 166.255 339.475L331.402 576.448C337.697 587.37 349.402 594.129 361.998 594.129C374.593 594.129 386.298 587.37 392.594 576.448L557.741 339.475C612.547 244.425 591.245 123.454 507.281 52.9103C465.302 17.6335 413.661 0 362.003 0L361.998 0ZM361.998 28.2103C407.165 28.2103 452.326 43.6746 489.127 74.5985C562.666 136.389 581.268 241.816 533.381 325.115L368.126 562.307C366.853 564.514 364.545 565.845 362.001 565.845C359.456 565.845 357.148 564.514 355.876 562.307L190.62 325.115C142.734 241.827 161.334 136.4 234.874 74.5985C271.675 43.6746 316.837 28.2103 362.004 28.2103H361.998ZM333.749 169.747C325.921 169.747 319.621 176.055 319.621 183.894V297.06C319.621 304.899 325.921 311.208 333.749 311.208C341.571 311.208 347.871 304.899 347.871 297.06V183.894C347.871 176.056 341.571 169.747 333.749 169.747V169.747ZM446.751 198.037C438.923 198.037 432.624 204.346 432.624 212.184V297.06C432.624 304.899 438.923 311.208 446.751 311.208C454.578 311.208 460.878 304.899 460.878 297.06V212.184C460.878 204.346 454.578 198.037 446.751 198.037V198.037ZM390.247 226.332C382.425 226.332 376.125 232.641 376.125 240.475V297.06C376.125 304.899 382.425 311.208 390.247 311.208C398.075 311.208 404.374 304.899 404.374 297.06V240.475C404.374 232.641 398.075 226.332 390.247 226.332ZM277.245 254.622C269.418 254.622 263.118 260.931 263.118 268.77V297.06C263.118 304.899 269.418 311.208 277.245 311.208C285.072 311.208 291.372 304.899 291.372 297.06V268.77C291.372 260.931 285.072 254.622 277.245 254.622ZM241.93 516.318C239.901 516.323 237.9 516.768 236.056 517.621C210.55 529.552 190.851 546.958 182.504 566.193C174.01 585.773 178.829 608.777 194.644 626.284C226.28 661.3 290.724 679 361.995 679C433.266 679 497.684 661.3 529.321 626.284C545.141 608.777 549.984 585.774 541.49 566.193C533.2 547.086 513.293 529.571 488.046 517.673C486.207 516.825 484.093 516.328 482.064 516.318C474.26 516.318 467.937 522.656 467.937 530.466C467.946 536.003 471.181 541.023 476.213 543.311C498.541 553.551 511.216 567.467 515.553 577.465C519.895 587.459 518.845 595.725 508.383 607.304C487.46 630.461 428.071 650.708 361.991 650.708C295.91 650.708 236.532 630.461 215.598 607.304C205.137 595.724 204.063 587.459 208.4 577.465C212.737 567.467 225.469 553.58 247.797 543.339C252.815 541.042 256.04 535.993 256.045 530.466C256.045 522.656 249.722 516.318 241.918 516.318H241.93Z" fill="#E76C3D"/>
</svg>
