<svg width="631" height="625" viewBox="0 0 631 625" fill="none" xmlns="http://www.w3.org/2000/svg">
<path d="M194.235 42.8633H73.4632C65.4568 42.8633 57.7733 46.0443 52.1131 51.71C46.4519 57.3712 43.2709 65.0501 43.2709 73.0566V150.957C43.1092 159.066 46.2183 166.902 51.8974 172.698C57.5766 178.489 65.3491 181.756 73.4638 181.751H123.785V198.057H103.657C98.0989 198.057 93.5924 202.563 93.5924 208.121C93.5924 210.79 94.6528 213.351 96.5398 215.238C98.4269 217.125 100.988 218.185 103.657 218.185H162.03C164.698 218.185 167.26 217.125 169.147 215.238C171.034 213.351 172.094 210.79 172.094 208.121C172.094 205.452 171.034 202.891 169.147 201.004C167.259 199.117 164.698 198.057 162.03 198.057H143.914V181.751H194.235C202.35 181.756 210.122 178.489 215.802 172.698C221.481 166.902 224.59 159.066 224.428 150.957V73.0566C224.428 65.0502 221.247 57.3713 215.586 51.71C209.925 46.0443 202.241 42.8633 194.236 42.8633H194.235ZM204.299 150.956C204.299 153.625 203.239 156.186 201.352 158.073C199.465 159.96 196.904 161.02 194.235 161.02H73.4632C67.9054 161.02 63.3989 156.514 63.3989 150.956V73.0562C63.3989 67.4984 67.9054 62.9919 73.4632 62.9919H194.235C196.904 62.9919 199.465 64.0522 201.352 65.9393C203.239 67.8308 204.299 70.3874 204.299 73.0562V150.956ZM556.55 42.8633H435.778C427.772 42.8633 420.088 46.0443 414.428 51.71C408.767 57.3712 405.586 65.0501 405.586 73.0566V150.957C405.424 159.066 408.533 166.902 414.212 172.698C419.891 178.489 427.664 181.756 435.779 181.751H486.1V198.057H466.978C461.42 198.057 456.914 202.563 456.914 208.121C456.914 210.79 457.974 213.351 459.861 215.238C461.748 217.125 464.309 218.185 466.978 218.185H525.351C528.02 218.185 530.581 217.125 532.468 215.238C534.355 213.351 535.415 210.79 535.415 208.121C535.415 205.452 534.355 202.891 532.468 201.004C530.581 199.117 528.02 198.057 525.351 198.057H506.229V181.751H556.55C564.665 181.756 572.437 178.489 578.117 172.698C583.796 166.902 586.905 159.066 586.743 150.957V73.0566C586.743 65.0502 583.562 57.3713 577.901 51.71C572.24 46.0443 564.556 42.8633 556.551 42.8633H556.55ZM566.614 150.956C566.614 153.625 565.554 156.186 563.667 158.073C561.779 159.96 559.218 161.02 556.55 161.02H435.778C430.22 161.02 425.714 156.514 425.714 150.956V73.0562C425.714 67.4984 430.22 62.9919 435.778 62.9919H556.55C559.218 62.9919 561.78 64.0522 563.667 65.9393C565.554 67.8308 566.614 70.3874 566.614 73.0562V150.956ZM194.235 405.784H73.4632C65.4568 405.784 57.7733 408.965 52.1131 414.626C46.4529 420.288 43.2709 427.971 43.2709 435.977V514.478C43.2709 522.485 46.4519 530.163 52.1131 535.828C57.7743 541.489 65.4578 544.67 73.4632 544.67H123.785V561.178H103.656V561.174C98.0983 561.174 93.5918 565.68 93.5918 571.238C93.5918 573.907 94.6522 576.468 96.5392 578.355C98.4263 580.242 100.987 581.302 103.656 581.302H162.029C164.698 581.302 167.259 580.242 169.146 578.355C171.033 576.468 172.093 573.907 172.093 571.238C172.093 568.569 171.033 566.013 169.146 564.121C167.259 562.234 164.698 561.174 162.029 561.174H143.913V544.666L194.235 544.67C202.241 544.67 209.925 541.489 215.585 535.828C221.246 530.163 224.427 522.484 224.427 514.478V435.977C224.427 427.97 221.246 420.287 215.585 414.626C209.924 408.966 202.24 405.784 194.235 405.784ZM204.299 514.479C204.299 517.147 203.239 519.709 201.352 521.596C199.465 523.483 196.904 524.543 194.235 524.543H73.4632C67.9054 524.543 63.3989 520.036 63.3989 514.479V435.977C63.3989 430.419 67.9054 425.913 73.4632 425.913H194.235C196.904 425.913 199.465 426.973 201.352 428.86C203.239 430.747 204.299 433.308 204.299 435.977V514.479ZM556.55 405.784H435.778C427.772 405.784 420.088 408.965 414.428 414.626C408.768 420.288 405.586 427.971 405.586 435.977V514.478C405.586 522.485 408.767 530.163 414.428 535.828C420.089 541.489 427.773 544.67 435.778 544.67H486.1V561.178H466.977V561.174C461.42 561.174 456.913 565.68 456.913 571.238C456.913 573.907 457.973 576.468 459.86 578.355C461.747 580.242 464.309 581.302 466.977 581.302H525.35C528.019 581.302 530.58 580.242 532.467 578.355C534.354 576.468 535.415 573.907 535.415 571.238C535.415 568.569 534.354 566.013 532.467 564.121C530.58 562.234 528.019 561.174 525.35 561.174H506.228V544.666L556.55 544.67C564.556 544.67 572.24 541.489 577.9 535.828C583.561 530.163 586.742 522.484 586.742 514.478V435.977C586.742 427.97 583.561 420.287 577.9 414.626C572.239 408.966 564.555 405.784 556.55 405.784ZM566.614 514.479C566.614 517.147 565.554 519.709 563.667 521.596C561.779 523.483 559.218 524.543 556.55 524.543H435.778C430.22 524.543 425.714 520.036 425.714 514.479V435.977C425.714 430.419 430.22 425.913 435.778 425.913H556.55C559.218 425.913 561.78 426.973 563.667 428.86C565.554 430.747 566.614 433.308 566.614 435.977V514.479ZM395.521 246.768L329.299 311.984L395.521 377.199C397.695 379.149 398.94 381.93 398.94 384.851C398.94 387.767 397.696 390.552 395.521 392.498C391.5 396.254 385.25 396.254 381.228 392.498L315.006 326.276L249.791 392.498C245.77 396.254 239.52 396.254 235.498 392.498C231.639 388.517 231.639 382.186 235.498 378.205L300.714 311.983L235.498 246.768C231.554 242.819 231.554 236.421 235.498 232.476C239.443 228.53 245.841 228.531 249.791 232.476L315.006 297.691L380.222 232.476C384.171 228.531 390.569 228.531 394.514 232.476C398.459 236.42 398.459 242.818 394.514 246.768L395.521 246.768ZM133.849 372.371C128.291 372.371 123.785 367.864 123.785 362.306V261.062C123.785 255.5 128.291 250.998 133.849 250.998C139.407 250.998 143.913 255.5 143.913 261.062V362.914V362.909C143.594 368.233 139.178 372.381 133.849 372.372V372.371ZM254.621 130.828C254.621 125.27 259.127 120.763 264.685 120.763H366.537C372.095 120.763 376.601 125.27 376.601 130.828C376.601 136.385 372.095 140.892 366.537 140.892H264.083C258.759 140.573 254.612 136.156 254.621 130.828H254.621ZM496.164 372.371C490.606 372.371 486.1 367.864 486.1 362.306V261.062C486.1 255.5 490.606 250.998 496.164 250.998C501.722 250.998 506.228 255.5 506.228 261.062V362.914V362.909C505.909 368.233 501.493 372.381 496.164 372.372V372.371ZM375.392 493.142C375.392 495.811 374.332 498.372 372.445 500.259C370.558 502.146 367.997 503.207 365.328 503.207H264.083C258.521 503.207 254.019 498.7 254.019 493.142C254.019 487.585 258.521 483.078 264.083 483.078H365.935H365.931C371.255 483.397 375.402 487.814 375.393 493.142H375.392Z" fill="#E76C3D"/>
</svg>
