<svg width="631" height="625" viewBox="0 0 631 625" fill="none" xmlns="http://www.w3.org/2000/svg">
<path d="M589.298 197.267H368.5V100.116C368.5 70.8813 344.742 47.1235 315.507 47.1235C286.272 47.1235 262.514 70.8813 262.514 100.116V197.267H41.7157C36.8567 197.267 32.8842 201.239 32.8842 206.098V568.211C32.8842 573.07 36.8567 577.043 41.7157 577.043H589.298C594.157 577.043 598.13 573.07 598.13 568.211V206.098C598.13 201.239 594.153 197.263 589.298 197.263V197.267ZM280.178 100.116C280.178 80.5993 295.988 64.7899 315.505 64.7899C335.022 64.7899 350.831 80.5993 350.831 100.116V232.593H280.175L280.178 100.116ZM580.461 559.377H50.5426V214.929H262.514V232.592H253.683C248.824 232.592 244.851 236.565 244.851 241.424C244.851 246.283 248.824 250.255 253.683 250.255H377.333C382.192 250.255 386.164 246.283 386.164 241.424C386.164 236.565 382.192 232.592 377.333 232.592H368.501V214.929H580.473L580.461 559.377Z" fill="#E76C3D"/>
<path d="M262.514 267.913H94.7085C89.8495 267.913 85.877 271.886 85.877 276.745V479.879C85.877 484.738 89.8495 488.71 94.7085 488.71H262.514C267.373 488.71 271.346 484.738 271.346 479.879V276.745C271.346 271.886 267.462 267.909 262.514 267.909V267.913ZM103.535 471.047V442.077C103.535 420.352 121.378 401.274 141.691 401.274H215.348C235.663 401.274 253.504 420.352 253.504 442.077L253.679 471.047H103.535ZM146.81 352.342C146.81 335.032 160.854 320.988 178.164 320.988C195.477 320.988 209.521 335.032 209.521 352.342C209.521 369.651 195.477 383.695 178.168 383.695C160.854 383.695 146.81 369.566 146.81 352.342ZM253.681 400.122C243.703 390.054 230.277 383.785 215.794 383.605C222.946 375.128 227.186 364.174 227.186 352.252C227.186 325.225 205.193 303.236 178.17 303.236C151.143 303.236 129.153 325.229 129.153 352.252C129.153 364.174 133.48 375.128 140.636 383.695C126.417 383.959 113.344 390.144 103.541 399.947L103.537 285.571H253.678L253.681 400.122Z" fill="#E76C3D"/>
<path d="M306.68 285.588V338.581C306.68 343.44 310.652 347.413 315.511 347.413H536.31C541.169 347.413 545.141 343.44 545.141 338.581V285.588C545.141 280.729 541.169 276.757 536.31 276.757H315.511C310.652 276.757 306.68 280.729 306.68 285.588V285.588ZM324.343 294.42H527.477V329.746H324.343V294.42Z" fill="#E76C3D"/>
<path d="M536.305 382.737H315.507C310.648 382.737 306.675 386.709 306.675 391.568C306.675 396.427 310.648 400.4 315.507 400.4H536.305C541.164 400.4 545.137 396.427 545.137 391.568C545.137 386.709 541.164 382.737 536.305 382.737Z" fill="#E76C3D"/>
<path d="M536.305 435.729H315.507C310.648 435.729 306.675 439.702 306.675 444.561C306.675 449.42 310.648 453.393 315.507 453.393H536.305C541.164 453.393 545.137 449.42 545.137 444.561C545.137 439.702 541.164 435.729 536.305 435.729Z" fill="#E76C3D"/>
<path d="M536.305 488.723H315.507C310.648 488.723 306.675 492.695 306.675 497.554C306.675 502.413 310.648 506.386 315.507 506.386H536.305C541.164 506.386 545.137 502.413 545.137 497.554C545.137 492.699 541.164 488.723 536.305 488.723Z" fill="#E76C3D"/>
</svg>
