<svg width="725" height="679" viewBox="0 0 725 679" fill="none" xmlns="http://www.w3.org/2000/svg">
<path d="M712.726 192.323H429.899V67.88C429.899 30.432 399.467 0 362.019 0C324.571 0 294.139 30.432 294.139 67.88V192.323H11.3125C5.08853 192.323 0 197.411 0 203.635V667.475C0 673.699 5.08853 678.788 11.3125 678.788H712.726C718.95 678.788 724.038 673.699 724.038 667.475V203.635C724.038 197.411 718.945 192.317 712.726 192.317V192.323ZM316.766 67.88C316.766 42.88 337.017 22.6293 362.017 22.6293C387.017 22.6293 407.267 42.88 407.267 67.88V237.573H316.762L316.766 67.88ZM701.406 656.16H22.6192V214.947H294.139V237.572H282.827C276.603 237.572 271.514 242.661 271.514 248.885C271.514 255.109 276.603 260.197 282.827 260.197H441.213C447.437 260.197 452.526 255.109 452.526 248.885C452.526 242.661 447.437 237.572 441.213 237.572H429.901V214.947H701.421L701.406 656.16Z" fill="#E76C3D"/>
<path d="M294.139 282.816H79.1924C72.9684 282.816 67.8799 287.905 67.8799 294.129V554.329C67.8799 560.553 72.9684 565.641 79.1924 565.641H294.139C300.363 565.641 305.452 560.553 305.452 554.329V294.129C305.452 287.905 300.478 282.811 294.139 282.811V282.816ZM90.4991 543.016V505.907C90.4991 478.079 113.354 453.641 139.374 453.641H233.723C259.744 453.641 282.598 478.079 282.598 505.907L282.822 543.016H90.4991ZM145.931 390.963C145.931 368.791 163.92 350.801 186.092 350.801C208.27 350.801 226.259 368.791 226.259 390.963C226.259 413.135 208.27 431.124 186.098 431.124C163.92 431.124 145.931 413.025 145.931 390.963ZM282.824 452.165C270.043 439.269 252.846 431.239 234.294 431.009C243.455 420.15 248.887 406.119 248.887 390.848C248.887 356.228 220.715 328.061 186.1 328.061C151.48 328.061 123.314 356.233 123.314 390.848C123.314 406.119 128.855 420.151 138.022 431.124C119.808 431.463 103.063 439.384 90.5058 451.941L90.5005 305.435H282.821L282.824 452.165Z" fill="#E76C3D"/>
<path d="M350.712 305.456V373.336C350.712 379.56 355.801 384.649 362.025 384.649H644.852C651.076 384.649 656.164 379.56 656.164 373.336V305.456C656.164 299.232 651.076 294.143 644.852 294.143H362.025C355.801 294.143 350.712 299.232 350.712 305.456V305.456ZM373.338 316.768H633.538V362.019H373.338V316.768Z" fill="#E76C3D"/>
<path d="M644.846 429.896H362.019C355.795 429.896 350.707 434.985 350.707 441.209C350.707 447.433 355.795 452.521 362.019 452.521H644.846C651.07 452.521 656.158 447.433 656.158 441.209C656.158 434.985 651.07 429.896 644.846 429.896Z" fill="#E76C3D"/>
<path d="M644.846 497.776H362.019C355.795 497.776 350.707 502.865 350.707 509.089C350.707 515.313 355.795 520.401 362.019 520.401H644.846C651.07 520.401 656.158 515.313 656.158 509.089C656.158 502.865 651.07 497.776 644.846 497.776Z" fill="#E76C3D"/>
<path d="M644.846 565.656H362.019C355.795 565.656 350.707 570.745 350.707 576.969C350.707 583.193 355.795 588.281 362.019 588.281H644.846C651.07 588.281 656.158 583.193 656.158 576.969C656.158 570.75 651.07 565.656 644.846 565.656Z" fill="#E76C3D"/>
<path d="M362.019 55.9933C355.795 55.9933 350.139 61.6495 350.139 67.8735C350.139 74.0975 355.795 79.7538 362.019 79.7538C368.243 79.7538 373.899 74.0975 373.899 67.8735C373.899 61.6495 368.243 55.9933 362.019 55.9933Z" fill="#E76C3D"/>
</svg>
